<?xml version="1.0" encoding="utf-8"?>
<!-- Generator: Adobe Illustrator 26.1.0, SVG Export Plug-In . SVG Version: 6.00 Build 0)  -->
<svg version="1.1" id="Layer_1" xmlns="http://www.w3.org/2000/svg" xmlns:xlink="http://www.w3.org/1999/xlink" x="0px" y="0px"
	 viewBox="0 0 470.1 104" style="enable-background:new 0 0 470.1 104;" xml:space="preserve">
<style type="text/css">
	.st0{fill:#E84C0A;}
	.st1{fill-rule:evenodd;clip-rule:evenodd;}
</style>
<path class="st0" d="M23.1,52.3c0-15.4,12.5-27.9,27.9-27.9S79,36.9,79,52.3S66.5,80.2,51.1,80.2S23.1,67.8,23.1,52.3L23.1,52.3z"/>
<path class="st0" d="M18.7,43.1c-1.9,6.8-1.6,14,0.8,20.7c-3.8-1-7.4-2.9-10.3-5.9c-8.8-8.8-8.8-23.1,0-32l0.6-0.6
	c1-1,2-0.9,2.5-0.4c0.5,0.5,0.7,0.8,0.6,1.9C12.9,26.9,12.9,35.9,18.7,43.1L18.7,43.1z"/>
<path class="st0" d="M34.4,22.9c-6.1,3.5-11.1,8.8-14,15.2c-2-3.4-3.1-7.3-3.1-11.5C17.3,14.1,27.4,4,39.9,4h0.9c1.5,0,2,0.7,2,1.5
	c0,0.7,0,1-0.9,1.8C41.9,7.3,35.4,13.7,34.4,22.9L34.4,22.9z"/>
<path class="st0" d="M60.7,20c-6.7-2-14-1.8-20.7,0.5c1-3.8,3.1-7.3,6.1-10.2c9-8.7,23.3-8.4,32,0.6l0.6,0.6c1,1,0.9,2,0.3,2.5
	c-0.5,0.5-0.8,0.7-2,0.6C77,14.5,67.9,14.3,60.7,20L60.7,20z"/>
<path class="st0" d="M80.7,36.3c-3.3-6.2-8.6-11.2-15-14.3c3.4-1.9,7.3-3,11.5-2.9c12.5,0.2,22.4,10.5,22.2,23l0,0.9
	c0,1.5-0.8,2-1.5,2c-0.7,0-1-0.1-1.8-1C96.1,43.9,89.9,37.4,80.7,36.3L80.7,36.3z"/>
<path class="st0" d="M83.4,61.8c2-6.7,1.8-14-0.5-20.7c3.8,1,7.3,3.1,10.2,6.1c8.7,9,8.4,23.3-0.6,31.9L92,79.8c-1,1-2,0.9-2.5,0.3
	c-0.5-0.5-0.7-0.8-0.6-2C88.9,78.1,89.1,69.1,83.4,61.8L83.4,61.8z"/>
<path class="st0" d="M67.4,81.8c6.2-3.3,11.2-8.6,14.3-15c1.9,3.4,3,7.3,2.9,11.5c-0.2,12.5-10.5,22.4-23,22.2l-0.9,0
	c-1.5,0-2-0.8-2-1.5c0-0.7,0.1-1,1-1.8C59.7,97.2,66.3,91,67.4,81.8L67.4,81.8z"/>
<path class="st0" d="M41.7,84.7c6.7,2,14,1.8,20.7-0.5c-1,3.8-3.1,7.3-6.1,10.2c-9,8.7-23.3,8.4-32-0.6l-0.6-0.6c-1-1-0.9-2-0.3-2.5
	c0.5-0.5,0.8-0.7,2-0.6C25.4,90.2,34.4,90.4,41.7,84.7L41.7,84.7z"/>
<path class="st0" d="M21.5,68.7c3.5,6.1,8.8,11.1,15.2,14c-3.4,2-7.3,3.1-11.5,3.1c-12.5,0-22.6-10.1-22.6-22.6v-0.9
	c0-1.5,0.7-2,1.5-2c0.7,0,1,0,1.8,0.9C6,61.3,12.3,67.7,21.5,68.7L21.5,68.7z"/>
<path class="st1" d="M454.6,30.4c0,3.4,2.7,6,6,6c3.2,0,5.9-2.5,5.9-6c0-3.3-2.7-5.9-5.9-5.9C457.3,24.5,454.6,27.1,454.6,30.4
	L454.6,30.4z M455.6,30.4c0-2.8,2.1-5,4.9-5c2.7,0,4.9,2.2,4.9,5c0,2.9-2.1,5.1-4.9,5.1C457.8,35.5,455.6,33.3,455.6,30.4
	L455.6,30.4z M458.2,33.9h1.1v-3h1.1l1.9,3h1.2l-2-3.1c1-0.1,1.8-0.6,1.8-1.9c0-1.3-0.8-2-2.4-2h-2.7L458.2,33.9L458.2,33.9z
	 M459.3,27.8h1.4c0.7,0,1.5,0.1,1.5,1.1c0,1.1-0.9,1.1-1.8,1.1h-1.1V27.8L459.3,27.8z"/>
<path class="st1" d="M162.5,41.2C159.7,30,151.8,26,147.6,24.6c-1.7-0.5-4.6-1.4-8.9-1.4c-11.6,0-21.1,6.2-25,17.2
	c-2,5.4-2,10.4-2,12.4c0,7.6,1.6,14.8,6.9,20.6c4.9,5.5,10.4,6.8,13.1,7.1c1.3,0.2,3.4,0.3,4.9,0.3c5.2,0,10.4-0.9,14.2-4.6
	c2-2,2.6-3.6,2.9-4.8c0.1,3.1,1,5.1,1.6,8.2h7.5V49.2h-23.9v10.1h13.6c-0.2,1.1-0.3,1.7-0.5,2.3c-0.6,1.7-2.8,6.5-8.2,8.4
	c-0.8,0.2-2.5,0.7-4.7,0.7c-6.6,0-10.1-3.3-11.7-5.5c-1.6-2.3-3.5-6.4-3.5-13.1c0-9.3,3.4-13.7,7-16.1c3.3-2.1,6.8-2.3,8.1-2.3
	c5.5,0,10.1,2.5,11.5,8.1L162.5,41.2L162.5,41.2z"/>
<path class="st1" d="M182.8,24.4l-18.5,55.4h13.3l3.5-11.2h18.7l3.4,11.2h13.6l-18.3-55.4H182.8L182.8,24.4z M183.9,58.6l6.4-22.8
	l6.4,22.8L183.9,58.6L183.9,58.6z"/>
<path class="st1" d="M218.8,24.4v55.4H231V57.6h3.5c6.2,0,9.2-0.1,11.8,2.1c1.8,1.5,2.8,3.5,3.1,8.1l0.2,4.5
	c0.2,1.8,0.1,5.3,1.5,6.9c0.2,0.3,0.7,0.5,0.8,0.6h12.4c-0.7-0.7-1-1.1-1.3-1.6c-1-2-1.2-5.7-1.3-5.8c-0.2-2.6-0.3-9.3-0.9-11.9
	c-1.2-6-5.3-7.3-7.7-7.9c1.3-0.3,3.1-0.9,5.5-3c1-0.9,1.6-1.8,2-2.3c2.1-3.1,2.3-7.1,2.3-8.2c0-1.6-0.2-5.6-3.2-9.2
	c-4.7-5.8-12-5.6-18.7-5.6L218.8,24.4L218.8,24.4z M231,47.8V34.9h10.3c3.1,0,4.8,0.1,6.2,0.8c1.3,0.5,3.1,2.1,3.1,5.5
	c0,0.9-0.2,4.6-3.6,6c-1.6,0.7-3.2,0.6-6.8,0.5L231,47.8L231,47.8z"/>
<path class="st1" d="M269.2,24.4v55.4H285c7.5,0,10.9-0.2,14.5-1.2c11.5-3.3,15-13.5,16-17.2c0.9-3.2,1.3-6.4,1.3-9.8
	c0-12.7-5.6-19.4-10-22.6c-6-4.4-13.1-4.6-20.3-4.6L269.2,24.4L269.2,24.4z M281.6,69.1V35.1h6.4c4.6,0,7,0.3,9,1.3
	c0.8,0.4,2.3,1.3,3.7,3c2.9,3.7,3.7,8.4,3.7,12.8c0,1.1,0.1,8.7-3.9,13.2c-2.9,3.3-7.2,3.6-8.5,3.8c-2,0.1-4.1,0.1-6.1,0.1
	L281.6,69.1L281.6,69.1z"/>
<polygon class="st1" points="321.3,24.4 321.3,79.8 363.1,79.8 363.1,69.2 333.6,69.2 333.6,55.6 359,55.6 359,45.8 333.6,45.8 
	333.6,34.9 362.5,34.9 362.5,24.4 "/>
<path class="st1" d="M367.9,24.4v55.4h11.4V59.4c0-6.7-0.1-13.2-0.3-19.8c0.9,2.6,1.3,3.4,2.6,5.8c1.2,2.5,2.5,4.9,3.8,7.4l15.1,27
	h12.7V24.4h-11.5v24.1c0,2.4-0.1,4.9,0,7.3c0.1,2.9,0.2,5.7,0.5,8.6c-0.5-1.3-1.1-2.6-1.7-3.9c-1.6-3.5-3.5-6.8-5.3-10l-14.4-26
	H367.9L367.9,24.4z"/>
<path class="st1" d="M433.3,24.4l-18.5,55.4h13.3l3.5-11.2h18.7l3.4,11.2h13.6l-18.3-55.4H433.3L433.3,24.4z M434.5,58.6l6.4-22.8
	l6.4,22.8L434.5,58.6L434.5,58.6z"/>
</svg>
